<?xml version="1.0" encoding="utf-8"?>
<!-- Generator: Adobe Illustrator 25.0.1, SVG Export Plug-In . SVG Version: 6.00 Build 0)  -->
<svg version="1.0" id="katman_1" xmlns="http://www.w3.org/2000/svg" xmlns:xlink="http://www.w3.org/1999/xlink" x="0px" y="0px"
	 viewBox="0 0 800 600" style="enable-background:new 0 0 800 600;" xml:space="preserve">
<style type="text/css">
	.st0{fill-rule:evenodd;clip-rule:evenodd;}
</style>
<path class="st0" d="M548.6,507.7H222.2c-8,0-15-2.9-20.9-8.8c-5.9-5.9-8.8-12.8-8.8-20.9V181.3c0-8,2.9-15,8.8-20.9
	c5.9-5.9,12.8-8.8,20.9-8.8h29.7v-22.3c0-10.2,3.6-18.9,10.9-26.2c7.3-7.3,16-10.9,26.2-10.9h14.8c10.2,0,18.9,3.6,26.2,10.9
	c7.3,7.3,10.9,16,10.9,26.2v22.3h89v-22.3c0-10.2,3.6-18.9,10.9-26.2c7.3-7.3,16-10.9,26.2-10.9h14.8c10.2,0,18.9,3.6,26.2,10.9
	c7.3,7.3,10.9,16,10.9,26.2v22.3h29.7c8,0,15,2.9,20.9,8.8c5.9,5.9,8.8,12.8,8.8,20.9v110.9l-30,30H392.9V478h155.8v-89.4l29.7-29.7
	V478c0,8-2.9,15-8.8,20.9C563.6,504.8,556.7,507.7,548.6,507.7z M378,411.3h-74.2V478H378V411.3z M289,411.3h-66.8V478H289V411.3z
	 M476.7,405.9l111.6-111.6L608,314L476.7,445.3L422,390.6l19.7-19.7C441.7,370.9,476.7,405.9,476.7,405.9z M378,322.2h-74.2v74.2
	H378V322.2z M289,322.2h-66.8v74.2H289V322.2z M548.6,240.6h-66.8v66.8h66.8V240.6z M467,240.6h-74.2v66.8H467V240.6z M378,240.6
	h-74.2v66.8H378V240.6z M289,240.6h-66.8v66.8H289V240.6z M481.9,122H467c-2,0-3.8,0.7-5.2,2.2c-1.5,1.5-2.2,3.2-2.2,5.2v66.8
	c0,2,0.7,3.8,2.2,5.2c1.5,1.5,3.2,2.2,5.2,2.2h14.8c2,0,3.7-0.7,5.2-2.2c1.5-1.5,2.2-3.2,2.2-5.2v-66.8c0-2-0.7-3.8-2.2-5.2
	C485.6,122.7,483.9,122,481.9,122z M303.8,122H289c-2,0-3.7,0.7-5.2,2.2c-1.5,1.5-2.2,3.2-2.2,5.2v66.8c0,2,0.7,3.8,2.2,5.2
	c1.5,1.5,3.2,2.2,5.2,2.2h14.8c2,0,3.8-0.7,5.2-2.2c1.5-1.5,2.2-3.2,2.2-5.2v-66.8c0-2-0.7-3.8-2.2-5.2
	C307.6,122.7,305.8,122,303.8,122z"/>
</svg>
